<?xml version="1.0" standalone="no"?>
<!DOCTYPE svg PUBLIC "-//W3C//DTD SVG 20010904//EN"
 "http://www.w3.org/TR/2001/REC-SVG-20010904/DTD/svg10.dtd">
<svg version="1.0" xmlns="http://www.w3.org/2000/svg"
 width="700.000000pt" height="700.000000pt" viewBox="0 0 700.000000 700.000000"
 preserveAspectRatio="xMidYMid meet">
<metadata>
Created by potrace 1.11, written by Peter Selinger 2001-2013
</metadata>
<g transform="translate(0.000000,700.000000) scale(0.100000,-0.100000)"
fill="#000000" stroke="none">
<path d="M3389 6995 c-2 -2 -48 -6 -103 -9 -54 -4 -108 -8 -120 -11 -11 -2
-55 -7 -96 -10 -41 -3 -102 -10 -135 -15 -33 -5 -87 -11 -120 -15 -33 -3 -69
-8 -80 -10 -11 -2 -42 -7 -70 -10 -27 -3 -59 -8 -70 -11 -11 -2 -36 -6 -55 -8
-19 -2 -91 -14 -160 -25 -69 -12 -141 -24 -160 -27 -19 -3 -37 -7 -40 -9 -3
-2 -26 -6 -50 -10 -25 -3 -61 -10 -80 -15 -19 -5 -51 -12 -70 -15 -19 -3 -62
-12 -95 -20 -33 -8 -76 -17 -95 -21 -19 -4 -39 -9 -45 -10 -28 -7 -63 -16 -85
-20 -204 -40 -743 -204 -1045 -317 -284 -106 -367 -148 -445 -227 -54 -53
-124 -161 -136 -208 -2 -10 -10 -39 -18 -67 -13 -43 -15 -237 -12 -1370 1
-726 5 -1333 8 -1350 4 -16 9 -61 13 -100 10 -108 42 -286 81 -440 194 -779
651 -1462 1309 -1956 469 -353 1063 -590 1665 -664 220 -27 636 -27 845 0 37
5 210 32 250 40 184 33 496 127 652 196 23 11 44 19 47 19 15 0 273 129 366
183 819 472 1426 1267 1649 2163 39 156 48 197 65 314 4 25 9 52 11 60 2 8 7
47 11 85 3 39 9 84 12 100 3 17 6 620 8 1340 4 1403 5 1369 -46 1480 -44 97
-117 185 -202 243 -109 75 -571 245 -1008 371 -148 42 -485 128 -570 145 -14
3 -56 11 -95 19 -236 49 -534 103 -670 122 -22 3 -53 7 -70 10 -48 7 -94 14
-185 25 -161 20 -209 25 -325 36 -38 3 -86 8 -105 10 -46 6 -327 14 -331 9z
m314 -429 c15 -2 60 -8 100 -11 40 -4 83 -9 97 -10 14 -2 52 -6 85 -9 58 -6
97 -11 160 -21 17 -3 48 -7 70 -10 22 -3 67 -10 100 -15 33 -5 83 -12 110 -15
28 -4 57 -8 65 -10 8 -3 33 -7 55 -11 64 -9 432 -82 530 -105 381 -88 818
-214 1050 -302 288 -110 356 -140 385 -173 16 -19 32 -44 35 -57 9 -32 -1
-2604 -9 -2657 -48 -299 -74 -417 -124 -580 -157 -500 -422 -928 -807 -1300
-122 -119 -142 -135 -261 -226 -329 -248 -676 -421 -1055 -524 -59 -16 -122
-32 -140 -35 -18 -3 -35 -8 -39 -10 -3 -2 -29 -7 -56 -11 -27 -3 -51 -7 -54
-9 -3 -2 -29 -6 -59 -10 -30 -4 -62 -8 -73 -10 -103 -20 -552 -28 -698 -12
-74 8 -90 10 -160 21 -19 3 -53 8 -75 11 -22 3 -87 17 -145 31 -58 14 -115 28
-128 30 -28 6 -259 80 -287 93 -11 5 -60 26 -110 46 -121 50 -306 147 -440
230 -60 38 -112 72 -115 75 -3 3 -30 23 -60 44 -155 109 -420 359 -557 526
-180 220 -351 497 -448 730 -15 36 -33 79 -41 95 -16 35 -101 289 -108 325 -3
14 -15 62 -26 107 -10 45 -22 96 -25 115 -3 18 -10 58 -15 88 -5 30 -12 75
-15 100 -3 25 -8 65 -12 90 -12 84 -15 2592 -3 2632 20 69 47 84 320 187 357
136 727 245 1165 345 140 31 491 100 575 111 25 4 115 17 200 30 138 21 223
32 300 40 99 10 168 18 184 21 10 2 59 6 110 10 50 3 93 8 95 10 5 4 315 -5
354 -10z"/>
<path d="M3418 6274 c-2 -1 -45 -5 -95 -8 -51 -4 -107 -9 -125 -11 -18 -2 -60
-6 -93 -9 -33 -4 -78 -9 -100 -12 -22 -2 -56 -6 -75 -9 -36 -4 -426 -60 -490
-71 -35 -5 -276 -52 -315 -60 -11 -3 -41 -9 -66 -14 -101 -20 -405 -94 -524
-127 -49 -14 -94 -26 -100 -27 -139 -32 -663 -214 -720 -250 -20 -13 -20 -24
-20 -1099 0 -597 3 -1088 7 -1092 3 -4 1247 -7 2763 -7 2033 0 2760 3 2769 12
8 8 11 303 12 1087 0 964 -1 1077 -15 1093 -46 53 -825 299 -1186 375 -279 58
-415 86 -435 90 -132 22 -278 46 -335 54 -38 6 -86 13 -105 16 -92 13 -282 36
-341 41 -36 2 -74 6 -85 8 -47 9 -320 26 -326 20z m467 -547 c15 -21 18 -251
3 -279 -8 -16 -26 -18 -162 -18 -122 0 -156 -3 -166 -15 -6 -8 -9 -18 -6 -24
3 -5 22 -65 42 -133 53 -185 25 -168 280 -168 203 0 215 -1 222 -19 11 -31 6
-271 -6 -283 -7 -7 -71 -12 -169 -13 -185 -2 -173 -1 -173 -20 0 -9 52 -192
116 -407 101 -338 115 -393 102 -402 -19 -14 -276 -12 -290 2 -6 6 -21 46 -34
89 -12 43 -55 186 -94 318 -40 132 -76 254 -80 270 -23 84 -42 135 -53 142 -6
4 -103 8 -215 9 -127 1 -207 5 -214 12 -16 16 -12 283 4 294 7 4 79 8 159 8
177 0 179 1 154 87 -42 148 -69 226 -82 239 -12 11 -55 14 -222 14 -160 0
-211 3 -219 13 -12 14 -16 233 -6 274 4 12 15 23 27 25 12 2 258 3 545 3 489
0 525 -1 537 -18z m-1656 -536 c11 -7 14 -39 16 -133 2 -144 0 -155 -29 -165
-11 -3 -98 -7 -193 -7 -127 -1 -175 -4 -185 -14 -10 -10 -13 -106 -13 -457 0
-334 -3 -447 -13 -457 -18 -18 -281 -16 -293 3 -5 8 -9 212 -9 455 0 407 -1
442 -17 456 -15 12 -51 15 -193 13 -96 0 -183 3 -192 7 -16 8 -18 25 -18 143
0 73 3 140 6 149 6 14 64 16 563 16 307 0 562 -4 570 -9z m3162 -17 c10 -12
13 -110 13 -457 1 -243 5 -448 9 -454 6 -10 57 -13 195 -13 103 0 193 -4 201
-9 17 -11 19 -277 2 -294 -14 -14 -1096 -18 -1123 -5 -16 8 -18 25 -18 148 0
127 2 140 19 150 12 6 95 10 200 10 168 0 181 1 191 19 6 13 10 175 10 458 0
328 3 442 12 451 8 8 55 12 144 12 107 0 134 -3 145 -16z"/>
<path d="M733 3165 c-18 -14 -14 -61 21 -236 74 -363 243 -749 455 -1039 103
-141 179 -229 326 -374 121 -119 148 -141 169 -133 12 5 177 216 526 672 47
61 135 175 195 254 61 78 197 256 304 394 106 139 204 266 216 282 102 131
122 160 118 172 -3 7 -13 14 -22 14 -9 1 -528 2 -1155 3 -794 1 -1143 -2
-1153 -9z"/>
<path d="M3922 3164 c-10 -7 -12 -16 -7 -25 7 -11 1011 -1319 1101 -1434 13
-16 70 -91 127 -165 64 -84 111 -136 124 -138 24 -4 234 200 349 338 171 205
323 459 429 719 39 95 107 304 119 363 2 13 12 57 21 98 34 155 41 235 24 246
-22 13 -2269 11 -2287 -2z"/>
<path d="M3459 3133 c-14 -16 -48 -57 -75 -93 -59 -79 -54 -73 -107 -140 -24
-30 -110 -143 -193 -250 -82 -107 -154 -202 -161 -210 -17 -22 -285 -370 -308
-401 -27 -37 -477 -620 -492 -639 -79 -96 -161 -214 -157 -225 10 -25 217
-141 384 -215 184 -82 493 -176 640 -195 8 -1 51 -7 95 -14 120 -17 235 -25
385 -25 123 0 337 12 350 19 3 1 28 5 55 9 28 3 61 8 75 11 14 3 48 9 75 15
89 17 160 34 205 49 14 5 52 17 85 27 221 64 685 294 685 339 0 7 -17 35 -37
62 -99 130 -529 689 -536 698 -5 6 -214 277 -465 604 -252 327 -462 596 -468
598 -5 2 -21 -9 -35 -24z"/>
</g>
</svg>
