<?xml version="1.0" encoding="UTF-8" standalone="no"?>
<!DOCTYPE svg PUBLIC "-//W3C//DTD SVG 1.1//EN" "http://www.w3.org/Graphics/SVG/1.1/DTD/svg11.dtd">
<svg version="1.1" xmlns="http://www.w3.org/2000/svg" xmlns:xlink="http://www.w3.org/1999/xlink" preserveAspectRatio="xMidYMid meet" viewBox="-0.9999999999998863 -1 643.9999999999998 191.47436873864896" width="102.41" height="30"><defs><path d="M277.24 126.07C277.24 126.8 276.74 127.3 276.01 127.3C275.61 127.3 272.43 127.3 272.04 127.3C271.29 127.3 270.8 126.8 270.8 126.07C270.8 123.08 270.8 108.11 270.8 81.17C259.26 108.3 252.85 123.37 251.57 126.38C251.33 127.05 250.83 127.3 250.17 127.3C249.76 127.3 246.53 127.3 246.12 127.3C245.46 127.3 244.96 127.05 244.72 126.38C243.45 123.4 237.1 108.46 225.66 81.58C225.66 108.27 225.66 123.1 225.66 126.06C225.66 126.8 225.16 127.3 224.41 127.3C224.02 127.3 220.85 127.3 220.45 127.3C219.71 127.3 219.21 126.8 219.21 126.06C219.21 120.53 219.21 76.3 219.21 70.77C219.21 70.03 219.71 69.53 220.45 69.53C220.98 69.53 225.2 69.53 225.73 69.53C226.39 69.53 226.98 69.78 227.22 70.35C228.62 73.66 235.61 90.25 248.18 120.11C260.71 90.25 267.67 73.66 269.06 70.35C269.31 69.77 269.88 69.53 270.54 69.53C271.09 69.53 275.45 69.53 275.99 69.53C276.74 69.53 277.24 70.03 277.24 70.77C277.24 81.83 277.24 120.54 277.24 126.07Z" id="c2xCRasMCQ"></path><path d="M317.06 99.32C317.06 115.36 317.06 124.28 317.06 126.06C317.06 126.79 316.57 127.29 315.82 127.29C315.42 127.29 312.25 127.29 311.86 127.29C311.11 127.29 310.61 126.79 310.61 126.06C310.61 124.28 310.61 115.36 310.61 99.32C300.37 82.34 294.68 72.91 293.54 71.02C293.05 70.19 293.37 69.53 294.36 69.53C294.78 69.53 298.14 69.53 298.57 69.53C299.23 69.53 299.73 69.78 300.05 70.35C300.97 71.88 305.57 79.53 313.84 93.29C322.11 79.53 326.7 71.88 327.62 70.35C327.95 69.78 328.45 69.53 329.1 69.53C329.52 69.53 332.89 69.53 333.31 69.53C334.32 69.53 334.63 70.19 334.14 71.02C331.86 74.8 326.17 84.23 317.06 99.32Z" id="bwMB6xScW"></path><path d="M371.47 69.61L372.6 69.7L373.7 69.83L374.77 70L375.8 70.21L376.81 70.45L377.78 70.72L378.71 71.03L379.62 71.37L380.49 71.74L381.33 72.15L382.13 72.59L382.9 73.06L383.64 73.55L384.34 74.08L385.01 74.64L385.65 75.22L386.25 75.84L386.81 76.48L387.34 77.14L387.84 77.84L388.3 78.55L388.72 79.3L389.11 80.06L389.46 80.85L389.77 81.67L390.05 82.5L390.3 83.36L390.5 84.24L390.67 85.13L390.8 86.05L390.9 86.99L390.95 87.95L390.97 88.92L390.95 89.89L390.9 90.85L390.8 91.79L390.67 92.71L390.5 93.6L390.3 94.48L390.05 95.34L389.77 96.18L389.46 96.99L389.11 97.78L388.72 98.55L388.29 99.29L387.84 100.01L387.34 100.7L386.81 101.37L386.25 102.01L385.65 102.62L385.01 103.21L384.34 103.76L383.64 104.29L382.9 104.79L382.13 105.26L381.32 105.7L380.49 106.1L379.61 106.48L378.71 106.82L377.77 107.13L376.8 107.4L375.8 107.64L374.76 107.84L373.69 108.01L372.59 108.14L371.46 108.24L370.3 108.3L369.11 108.32L363.99 108.32L363.99 126.06L363.99 126.13L363.98 126.19L363.98 126.25L363.97 126.31L363.96 126.36L363.95 126.42L363.93 126.47L363.91 126.53L363.89 126.58L363.87 126.63L363.85 126.68L363.83 126.72L363.8 126.77L363.77 126.81L363.74 126.86L363.7 126.9L363.67 126.93L363.63 126.97L363.59 127.01L363.55 127.04L363.51 127.07L363.47 127.1L363.42 127.13L363.37 127.16L363.33 127.18L363.28 127.2L363.22 127.22L363.17 127.24L363.12 127.25L363.06 127.27L363 127.28L362.94 127.28L362.88 127.29L362.82 127.29L362.76 127.3L351.13 127.3L351.06 127.29L351 127.29L350.94 127.28L350.88 127.28L350.82 127.27L350.77 127.25L350.71 127.24L350.66 127.22L350.61 127.2L350.56 127.18L350.51 127.16L350.46 127.13L350.41 127.1L350.37 127.07L350.33 127.04L350.28 127.01L350.25 126.97L350.21 126.93L350.17 126.9L350.14 126.86L350.11 126.81L350.08 126.77L350.05 126.72L350.02 126.68L350 126.63L349.98 126.58L349.96 126.53L349.94 126.47L349.93 126.42L349.91 126.36L349.9 126.31L349.89 126.25L349.89 126.19L349.88 126.13L349.88 126.06L349.88 70.77L349.88 70.7L349.89 70.64L349.89 70.58L349.9 70.52L349.91 70.46L349.93 70.41L349.94 70.35L349.96 70.3L349.98 70.25L350 70.2L350.02 70.15L350.05 70.1L350.08 70.06L350.11 70.01L350.14 69.97L350.17 69.93L350.21 69.89L350.25 69.85L350.28 69.82L350.33 69.78L350.37 69.75L350.41 69.72L350.46 69.69L350.51 69.67L350.56 69.64L350.61 69.62L350.66 69.6L350.71 69.59L350.77 69.57L350.82 69.56L350.88 69.55L350.94 69.54L351 69.53L351.06 69.53L351.13 69.53L369.12 69.53L370.31 69.55L371.47 69.61ZM363.99 95.94L368.85 95.94L370.19 95.88L371.55 95.69L372.86 95.35L374.1 94.83L375.21 94.12L376.16 93.2L376.89 92.04L377.36 90.62L377.52 88.92L377.36 87.2L376.89 85.77L376.16 84.61L375.21 83.69L374.1 82.98L372.86 82.48L371.55 82.14L370.19 81.96L368.85 81.9L363.99 81.9L363.99 95.94Z" id="aDMHIWfGs"></path><path d="M452.42 126.07C452.42 126.8 451.93 127.3 451.19 127.3C450.03 127.3 440.73 127.3 439.56 127.3C438.82 127.3 438.32 126.8 438.32 126.07C438.32 124.68 438.32 117.75 438.32 105.26L419.59 105.26C419.59 117.75 419.59 124.68 419.59 126.07C419.59 126.8 419.09 127.3 418.36 127.3C417.19 127.3 407.89 127.3 406.73 127.3C405.98 127.3 405.48 126.8 405.48 126.07C405.48 120.54 405.48 76.3 405.48 70.77C405.48 70.03 405.98 69.53 406.73 69.53C407.89 69.53 417.19 69.53 418.36 69.53C419.09 69.53 419.59 70.03 419.59 70.77C419.59 72.25 419.59 79.62 419.59 92.89L438.32 92.89C438.32 79.62 438.32 72.25 438.32 70.77C438.32 70.03 438.82 69.53 439.56 69.53C440.73 69.53 450.03 69.53 451.19 69.53C451.93 69.53 452.42 70.03 452.42 70.77C452.42 81.83 452.42 120.54 452.42 126.07Z" id="aqT2MqcVp"></path><path d="M482.18 69.53C482.91 69.53 483.4 70.03 483.4 70.77C483.4 76.3 483.4 120.54 483.4 126.07C483.4 126.8 482.91 127.3 482.18 127.3C481.01 127.3 471.7 127.3 470.54 127.3C469.8 127.3 469.3 126.8 469.3 126.07C469.3 120.54 469.3 76.3 469.3 70.77C469.3 70.03 469.8 69.53 470.54 69.53C472.86 69.53 481.01 69.53 482.18 69.53Z" id="bdtuuEDE8"></path><path d="M518.88 128.38C510.13 128.38 502.36 123.59 498.57 119.21C498.16 118.72 498.08 118.06 498.57 117.48C499.21 116.77 504.29 111.02 504.93 110.3C505.34 109.72 506.1 109.56 506.75 110.15C511.21 113.53 514.75 115.09 519.29 115.09C522.52 115.09 525.73 113.61 525.73 110.39C525.73 102.39 499.64 104.95 499.64 85.88C499.64 74.9 508.97 68.88 518.47 68.88C526.15 68.88 531.84 71.93 536.8 76.47C537.38 77.05 537.38 77.54 536.96 78.21C536.35 78.96 531.53 84.97 530.93 85.72C530.43 86.38 529.85 86.46 529.2 86.04C524.98 83.33 522.52 82.17 518.97 82.17C515.09 82.17 513.42 84.24 513.42 86.21C513.44 94.37 539.51 90.24 539.51 110.54C539.51 122.66 528.62 128.38 518.88 128.38Z" id="a75vDP2Ww"></path><path d="M567.28 69.53C568.03 69.53 568.53 70.03 568.53 70.77C568.53 76.3 568.53 120.54 568.53 126.07C568.53 126.8 568.03 127.3 567.28 127.3C566.12 127.3 556.82 127.3 555.66 127.3C554.91 127.3 554.42 126.8 554.42 126.07C554.42 120.54 554.42 76.3 554.42 70.77C554.42 70.03 554.91 69.53 555.66 69.53C557.98 69.53 566.12 69.53 567.28 69.53Z" id="bVVmXM2Tc"></path><path d="M640 101.13C640 115.83 630.59 128.36 614.15 128.36C597.57 128.36 583.8 115.07 583.8 98.41C583.8 81.9 597.24 68.86 613.84 68.86C622.01 68.86 629.36 72 634.39 77.45C634.97 78.02 634.8 78.6 634.39 79.18C633.67 79.95 627.93 86.16 627.21 86.93C626.8 87.51 626.05 87.51 625.48 87.02C622.43 84.38 618.56 82.64 613.68 82.64C605.01 82.64 598.32 89.49 598.32 98.41C598.32 107.49 604.69 114.5 614.01 114.5C622.1 114.5 625.9 109.88 626.14 105.25C624.96 105.25 615.52 105.25 614.33 105.25C613.59 105.25 613.1 104.77 613.1 104.02C613.1 103.11 613.1 95.78 613.1 94.87C613.1 94.12 613.59 93.63 614.33 93.63C616.78 93.63 636.31 93.63 638.76 93.63C639.49 93.62 640 94.12 640 94.87C640 96.12 640 100.5 640 101.13Z" id="a1aYFrOjr0"></path><path d="M93.74 0C41.97 0 0 41.97 0 93.74C0 145.51 41.97 187.47 93.74 187.47C145.51 187.47 187.47 145.51 187.47 93.74C187.47 41.97 145.51 0 93.74 0Z" id="e4DrlyTd2n"></path><path d="M105.44 116.65C101.89 114.82 73.5 100.25 69.95 98.43C70.3 96.97 70.54 95.48 70.54 93.92C70.54 92.59 70.4 91.29 70.14 90.04C73.77 88.24 102.79 73.81 106.42 72.01C109.9 75.88 114.9 78.36 120.52 78.36C131.04 78.36 139.57 69.82 139.57 59.3C139.57 48.77 131.04 40.24 120.52 40.24C110 40.24 101.47 48.77 101.47 59.3C101.47 61.02 101.77 62.65 102.2 64.24C98.61 66.02 69.9 80.29 66.31 82.08C62.82 77.71 57.51 74.86 51.48 74.86C40.96 74.86 32.43 83.39 32.43 93.92C32.43 104.44 40.96 112.97 51.48 112.97C57.27 112.97 62.39 110.34 65.88 106.27C69.47 108.12 98.22 122.88 101.81 124.72C101.6 125.85 101.46 126.98 101.46 128.16C101.46 138.69 110 147.22 120.51 147.22C131.04 147.22 139.57 138.69 139.57 128.16C139.58 117.64 131.05 109.11 120.53 109.11C114.35 109.11 108.92 112.1 105.44 116.65Z" id="a8RFQEvpT"></path></defs><g><g><use xlink:href="#c2xCRasMCQ" opacity="1" fill="#ffffff" fill-opacity="1"></use><g><use xlink:href="#c2xCRasMCQ" opacity="1" fill-opacity="0" stroke="#000000" stroke-width="1" stroke-opacity="0"></use></g></g><g><use xlink:href="#bwMB6xScW" opacity="1" fill="#ffffff" fill-opacity="1"></use><g><use xlink:href="#bwMB6xScW" opacity="1" fill-opacity="0" stroke="#000000" stroke-width="1" stroke-opacity="0"></use></g></g><g><use xlink:href="#aDMHIWfGs" opacity="1" fill="#ffffff" fill-opacity="1"></use><g><use xlink:href="#aDMHIWfGs" opacity="1" fill-opacity="0" stroke="#000000" stroke-width="1" stroke-opacity="0"></use></g></g><g><use xlink:href="#aqT2MqcVp" opacity="1" fill="#ffffff" fill-opacity="1"></use><g><use xlink:href="#aqT2MqcVp" opacity="1" fill-opacity="0" stroke="#000000" stroke-width="1" stroke-opacity="0"></use></g></g><g><use xlink:href="#bdtuuEDE8" opacity="1" fill="#ffffff" fill-opacity="1"></use><g><use xlink:href="#bdtuuEDE8" opacity="1" fill-opacity="0" stroke="#000000" stroke-width="1" stroke-opacity="0"></use></g></g><g><use xlink:href="#a75vDP2Ww" opacity="1" fill="#ffffff" fill-opacity="1"></use><g><use xlink:href="#a75vDP2Ww" opacity="1" fill-opacity="0" stroke="#000000" stroke-width="1" stroke-opacity="0"></use></g></g><g><use xlink:href="#bVVmXM2Tc" opacity="1" fill="#ffffff" fill-opacity="1"></use><g><use xlink:href="#bVVmXM2Tc" opacity="1" fill-opacity="0" stroke="#000000" stroke-width="1" stroke-opacity="0"></use></g></g><g><use xlink:href="#a1aYFrOjr0" opacity="1" fill="#ffffff" fill-opacity="1"></use><g><use xlink:href="#a1aYFrOjr0" opacity="1" fill-opacity="0" stroke="#000000" stroke-width="1" stroke-opacity="0"></use></g></g><g><use xlink:href="#e4DrlyTd2n" opacity="1" fill="#ffffff" fill-opacity="1"></use><g><use xlink:href="#e4DrlyTd2n" opacity="1" fill-opacity="0" stroke="#000000" stroke-width="1" stroke-opacity="0"></use></g></g><g><use xlink:href="#a8RFQEvpT" opacity="1" fill="#c90e3a" fill-opacity="1"></use><g><use xlink:href="#a8RFQEvpT" opacity="1" fill-opacity="0" stroke="#000000" stroke-width="1" stroke-opacity="0"></use></g></g></g></svg>