<?xml version="1.0" encoding="UTF-8" standalone="no"?>
<!DOCTYPE svg PUBLIC "-//W3C//DTD SVG 1.1//EN" "http://www.w3.org/Graphics/SVG/1.1/DTD/svg11.dtd">
<svg version="1.1" xmlns="http://www.w3.org/2000/svg" xmlns:xlink="http://www.w3.org/1999/xlink" preserveAspectRatio="xMidYMid meet" viewBox="0 0 450 170" width="450" height="170"><defs><path d="M116.57 15.79L116.49 16.07L116.41 16.35L116.32 16.61L116.22 16.87L116.12 17.13L116.02 17.37L115.91 17.61L115.79 17.84L115.67 18.06L115.55 18.27L115.42 18.48L115.28 18.68L115.14 18.87L115 19.05L114.85 19.22L114.69 19.39L114.53 19.55L114.36 19.7L114.19 19.84L114.02 19.98L113.84 20.1L113.65 20.22L113.46 20.33L113.27 20.44L113.07 20.53L112.86 20.62L112.65 20.7L112.44 20.77L112.22 20.84L111.99 20.9L111.76 20.95L111.53 20.99L111.29 21.02L111.04 21.04L110.79 21.06L110.53 21.07L110.27 21.07L110.01 21.07L109.61 21.06L109.21 21.05L108.82 21.06L108.44 21.07L108.06 21.08L107.68 21.11L107.31 21.14L106.95 21.18L106.59 21.22L106.24 21.28L105.89 21.34L105.55 21.4L105.22 21.48L104.89 21.56L104.56 21.65L104.25 21.75L103.94 21.85L103.64 21.96L103.34 22.08L103.05 22.2L102.77 22.33L102.49 22.47L102.23 22.62L101.97 22.77L101.71 22.93L101.47 23.1L101.23 23.27L101 23.46L100.78 23.65L100.57 23.84L100.36 24.05L100.17 24.26L99.98 24.47L99.8 24.7L99.63 24.93L99.47 25.17L99.32 25.42L99.18 25.67L99.04 25.93L98.92 26.2L98.84 26.38L98.76 26.57L98.69 26.76L98.62 26.95L98.55 27.15L98.48 27.35L98.42 27.55L98.36 27.76L98.3 27.96L98.24 28.18L98.19 28.39L98.14 28.61L98.09 28.83L98.04 29.06L98 29.29L97.96 29.52L97.92 29.76L97.88 29.99L97.85 30.24L97.82 30.48L97.79 30.73L97.76 30.98L97.74 31.24L97.72 31.49L97.7 31.76L97.68 32.02L97.67 32.29L97.65 32.56L97.65 32.84L97.64 33.11L97.63 33.4L97.63 33.68L97.63 33.97L97.64 34.26L97.64 34.55L97.65 34.85L97.66 35.15L97.67 35.46L97.69 35.76L97.71 36.07L98.06 36.12L98.41 36.17L98.75 36.21L99.08 36.25L99.41 36.3L99.73 36.34L100.05 36.38L100.36 36.42L100.66 36.46L100.95 36.5L101.24 36.53L101.53 36.57L101.8 36.6L102.07 36.64L102.34 36.67L102.59 36.7L102.84 36.73L103.09 36.76L103.32 36.79L103.56 36.82L103.78 36.85L104 36.87L104.21 36.9L104.41 36.92L104.61 36.94L104.81 36.97L104.99 36.99L105.17 37.01L105.34 37.03L105.51 37.04L105.67 37.06L105.82 37.08L105.97 37.09L106.11 37.11L106.24 37.12L106.37 37.13L106.49 37.15L106.61 37.16L106.72 37.17L106.82 37.17L108.94 37.39L111.02 37.66L113.07 38L115.09 38.4L117.06 38.87L119 39.39L120.9 39.97L122.75 40.61L124.56 41.31L126.33 42.06L128.05 42.87L129.73 43.73L131.36 44.64L132.94 45.61L134.48 46.62L135.96 47.68L137.39 48.79L138.76 49.95L140.09 51.15L141.35 52.39L142.57 53.68L143.72 55.01L144.81 56.37L145.85 57.78L146.82 59.23L147.73 60.71L148.58 62.23L149.37 63.78L150.08 65.37L150.73 66.99L151.32 68.64L151.83 70.31L152.28 72.02L152.65 73.76L152.95 75.52L153.17 77.31L153.32 79.12L153.4 80.95L153.4 82.8L153.32 84.68L153.18 86.32L152.98 87.93L152.72 89.52L152.4 91.08L152.01 92.61L151.57 94.12L151.07 95.6L150.5 97.06L149.89 98.48L149.21 99.87L148.48 101.24L147.69 102.57L146.85 103.87L145.96 105.14L145.01 106.38L144.01 107.58L142.97 108.75L141.87 109.89L140.72 110.98L139.52 112.04L138.27 113.07L136.98 114.06L135.64 115L134.25 115.91L132.82 116.78L131.35 117.61L129.83 118.4L128.27 119.14L126.67 119.84L125.02 120.5L123.34 121.12L121.62 121.69L119.86 122.21L118.06 122.69L116.22 123.13L114.35 123.51L112.44 123.85L110.5 124.14L108.53 124.38L106.52 124.56L106.19 124.59L105.86 124.63L105.53 124.66L105.2 124.69L104.87 124.73L104.54 124.76L104.22 124.8L103.9 124.83L103.58 124.87L103.26 124.91L102.95 124.95L102.65 124.99L102.34 125.03L102.05 125.07L101.76 125.11L101.47 125.15L101.19 125.19L100.92 125.23L100.66 125.28L100.4 125.32L100.15 125.36L99.91 125.4L99.68 125.45L99.46 125.49L99.25 125.53L99.05 125.58L98.86 125.62L98.68 125.66L98.51 125.71L98.36 125.75L98.22 125.79L98.09 125.83L97.97 125.87L97.87 125.91L97.79 125.95L97.71 125.99L97.66 126.03L97.62 126.07L97.59 126.11L97.58 126.15L97.58 126.38L97.58 126.64L97.57 126.93L97.56 127.23L97.56 127.56L97.55 127.9L97.55 128.26L97.55 128.64L97.55 129.03L97.56 129.44L97.57 129.86L97.59 130.28L97.62 130.72L97.65 131.16L97.7 131.61L97.75 132.07L97.82 132.53L97.89 132.99L97.99 133.45L98.09 133.91L98.21 134.37L98.34 134.82L98.5 135.27L98.67 135.71L98.85 136.14L99.06 136.57L99.29 136.98L99.54 137.38L99.81 137.77L100.1 138.14L100.42 138.5L100.76 138.84L101.13 139.15L101.52 139.45L101.95 139.73L102.4 139.98L102.88 140.2L103.39 140.4L103.93 140.58L104.5 140.72L104.89 140.81L105.27 140.9L105.64 140.99L106 141.09L106.35 141.2L106.69 141.31L107.03 141.42L107.35 141.54L107.66 141.66L107.96 141.79L108.25 141.92L108.54 142.06L108.81 142.2L109.08 142.34L109.33 142.49L109.58 142.64L109.81 142.8L110.04 142.96L110.25 143.13L110.46 143.3L110.66 143.47L110.84 143.65L111.02 143.84L111.19 144.03L111.35 144.22L111.5 144.42L111.64 144.62L111.77 144.82L111.89 145.03L112 145.25L112.1 145.47L112.19 145.69L112.27 145.92L112.34 146.15L112.41 146.39L112.46 146.63L112.5 146.88L112.54 147.13L112.56 147.38L112.58 147.64L61.79 147.5L61.89 147.21L62 146.93L62.11 146.65L62.23 146.38L62.36 146.11L62.49 145.85L62.63 145.6L62.77 145.35L62.92 145.11L63.08 144.87L63.24 144.64L63.41 144.42L63.59 144.21L63.77 144L63.95 143.79L64.14 143.6L64.34 143.41L64.55 143.22L64.76 143.04L64.98 142.87L65.2 142.7L65.43 142.55L65.66 142.39L65.91 142.25L66.15 142.1L66.41 141.97L66.67 141.84L66.93 141.72L67.2 141.61L67.48 141.5L67.76 141.39L68.05 141.3L68.35 141.21L68.65 141.12L68.96 141.04L69.27 140.97L69.59 140.91L69.92 140.85L70.25 140.8L70.59 140.75L70.93 140.7L71.26 140.63L71.57 140.55L71.88 140.45L72.18 140.34L72.47 140.21L72.75 140.07L73.03 139.91L73.29 139.74L73.54 139.55L73.78 139.35L74.02 139.13L74.24 138.89L74.46 138.64L74.67 138.37L74.86 138.09L75.05 137.8L75.23 137.48L75.4 137.16L75.56 136.81L75.71 136.46L75.85 136.08L75.98 135.7L76.11 135.29L76.22 134.87L76.32 134.44L76.42 133.99L76.5 133.52L76.58 133.04L76.65 132.54L76.7 132.03L76.75 131.51L76.79 130.96L76.82 130.41L76.84 129.83L76.85 129.25L76.85 128.64L76.85 128.02L76.83 127.39L76.8 126.74L76.77 126.71L76.74 126.68L76.69 126.65L76.64 126.62L76.57 126.59L76.51 126.56L76.43 126.54L76.34 126.51L76.25 126.48L76.15 126.45L76.04 126.42L75.93 126.39L75.81 126.37L75.68 126.34L75.54 126.31L75.39 126.28L75.24 126.25L75.08 126.23L74.91 126.2L74.73 126.17L74.54 126.15L74.35 126.12L74.15 126.09L73.94 126.06L73.73 126.04L73.51 126.01L73.27 125.99L73.04 125.96L72.79 125.93L72.54 125.91L72.27 125.88L72 125.85L71.73 125.83L71.44 125.8L71.15 125.78L70.85 125.75L70.54 125.73L70.23 125.7L69.9 125.68L69.57 125.65L68.29 125.54L67.01 125.39L65.75 125.22L64.5 125.02L63.26 124.79L62.03 124.54L60.81 124.26L59.61 123.96L58.41 123.63L57.24 123.27L56.07 122.89L54.92 122.48L53.78 122.06L52.66 121.6L51.55 121.12L50.45 120.62L49.38 120.1L48.31 119.55L47.26 118.98L46.23 118.39L45.22 117.78L44.22 117.14L43.23 116.48L42.27 115.81L41.32 115.11L40.39 114.39L39.48 113.64L38.59 112.88L37.71 112.1L36.86 111.3L36.02 110.49L35.21 109.65L34.41 108.79L33.63 107.92L32.88 107.02L32.14 106.11L31.43 105.18L30.74 104.24L30.07 103.28L29.42 102.3L28.84 101.38L28.28 100.44L27.75 99.49L27.25 98.52L26.77 97.54L26.31 96.55L25.88 95.55L25.47 94.54L25.1 93.52L24.74 92.49L24.41 91.45L24.11 90.4L23.83 89.35L23.58 88.29L23.35 87.23L23.15 86.16L22.97 85.09L22.83 84.02L22.7 82.95L22.6 81.87L22.53 80.8L22.49 79.72L22.47 78.65L22.48 77.58L22.51 76.52L22.57 75.46L22.66 74.4L22.77 73.35L22.91 72.31L23.08 71.27L23.27 70.25L23.49 69.23L23.73 68.22L24.01 67.23L24.31 66.24L24.64 65.27L24.99 64.31L25.37 63.36L25.78 62.43L26.22 61.52L26.81 60.4L27.43 59.29L28.1 58.21L28.8 57.15L29.53 56.12L30.3 55.11L31.11 54.12L31.95 53.15L32.82 52.21L33.72 51.3L34.66 50.4L35.62 49.54L36.62 48.7L37.65 47.88L38.71 47.1L39.79 46.33L40.9 45.6L42.04 44.89L43.21 44.21L44.4 43.56L45.62 42.93L46.87 42.34L48.13 41.77L49.42 41.23L50.74 40.73L52.07 40.25L53.43 39.8L54.8 39.38L56.2 39L57.62 38.64L59.05 38.32L60.51 38.02L61.98 37.77L63.47 37.54L64.97 37.34L66.49 37.18L68.03 37.06L69.58 36.96L71.14 36.9L72.72 36.88L76.81 36.88L76.84 36.5L76.86 36.13L76.88 35.77L76.9 35.41L76.92 35.06L76.94 34.72L76.95 34.39L76.97 34.06L76.98 33.74L76.99 33.42L76.99 33.12L77 32.82L77 32.53L77 32.24L77 31.96L77 31.69L77 31.43L76.99 31.17L76.99 30.92L76.98 30.68L76.97 30.44L76.95 30.21L76.94 29.99L76.92 29.78L76.9 29.57L76.88 29.37L76.86 29.18L76.84 28.99L76.81 28.81L76.79 28.64L76.76 28.48L76.73 28.32L76.69 28.17L76.66 28.02L76.62 27.89L76.58 27.76L76.54 27.64L76.5 27.52L76.46 27.41L76.41 27.31L76.34 27.16L76.27 27.01L76.19 26.84L76.11 26.68L76.03 26.5L75.94 26.33L75.85 26.15L75.76 25.96L75.66 25.78L75.55 25.59L75.44 25.4L75.32 25.21L75.2 25.02L75.07 24.82L74.93 24.63L74.78 24.44L74.62 24.25L74.46 24.07L74.28 23.88L74.1 23.7L73.9 23.52L73.7 23.35L73.48 23.18L73.25 23.02L73.01 22.86L72.76 22.71L72.49 22.57L72.21 22.43L71.92 22.31L71.61 22.19L71.29 22.08L70.95 21.98L70.6 21.88L70.23 21.81L69.84 21.74L69.44 21.68L69.02 21.64L68.58 21.6L68.13 21.59L67.66 21.58L67.34 21.58L67.02 21.57L66.72 21.55L66.42 21.53L66.12 21.5L65.83 21.46L65.55 21.41L65.27 21.35L65 21.29L64.74 21.22L64.48 21.14L64.22 21.06L63.98 20.96L63.73 20.86L63.5 20.75L63.27 20.64L63.05 20.51L62.83 20.38L62.62 20.24L62.41 20.1L62.22 19.94L62.02 19.78L61.84 19.61L61.65 19.43L61.48 19.25L61.31 19.05L61.15 18.85L60.99 18.65L60.84 18.43L60.69 18.21L60.56 17.98L60.42 17.74L60.3 17.49L60.17 17.24L60.06 16.98L59.95 16.71L59.85 16.43L59.75 16.15L59.66 15.85L59.57 15.55L116.72 15.19L116.65 15.49L116.57 15.79ZM72.29 43.9L71.85 43.93L71.4 43.98L70.94 44.04L70.47 44.12L69.99 44.21L69.51 44.32L69.01 44.45L68.51 44.59L68 44.75L67.49 44.92L66.98 45.1L66.46 45.3L65.93 45.51L65.41 45.74L64.88 45.98L64.35 46.23L63.82 46.49L63.29 46.77L62.76 47.05L62.24 47.35L61.71 47.66L61.19 47.98L60.67 48.3L60.16 48.64L59.65 48.99L59.15 49.34L58.66 49.71L58.17 50.08L57.69 50.46L57.22 50.84L56.76 51.24L56.31 51.64L55.87 52.04L55.44 52.46L55.02 52.87L54.62 53.3L53.97 54.01L53.34 54.73L52.74 55.46L52.15 56.2L51.58 56.94L51.03 57.7L50.5 58.47L49.99 59.25L49.5 60.03L49.03 60.83L48.58 61.64L48.15 62.46L47.74 63.29L47.35 64.12L46.98 64.97L46.63 65.83L46.29 66.7L45.98 67.59L45.69 68.48L45.41 69.38L45.16 70.3L44.92 71.22L44.7 72.16L44.51 73.11L44.33 74.07L44.17 75.05L44.03 76.03L43.92 77.03L43.82 78.04L43.74 79.06L43.68 80.09L43.63 81.13L43.61 82.19L43.61 83.26L43.63 84.35L43.66 85.44L43.72 86.55L43.78 87.64L43.87 88.72L43.98 89.77L44.11 90.81L44.26 91.83L44.43 92.83L44.63 93.82L44.84 94.78L45.07 95.73L45.33 96.66L45.6 97.57L45.9 98.47L46.21 99.34L46.55 100.2L46.9 101.04L47.28 101.86L47.67 102.66L48.09 103.44L48.53 104.2L48.98 104.94L49.46 105.67L49.95 106.37L50.47 107.06L51 107.72L51.56 108.37L52.13 109L52.72 109.6L53.34 110.19L53.97 110.76L54.62 111.3L55.29 111.83L55.98 112.34L56.69 112.82L57.42 113.29L58.17 113.73L58.93 114.16L59.72 114.56L60.02 114.71L60.33 114.85L60.63 114.99L60.92 115.13L61.22 115.26L61.51 115.38L61.8 115.5L62.09 115.62L62.38 115.73L62.66 115.83L62.95 115.93L63.23 116.03L63.51 116.12L63.8 116.21L64.08 116.29L64.36 116.37L64.64 116.45L64.93 116.52L65.21 116.58L65.49 116.65L65.78 116.7L66.07 116.76L66.36 116.81L66.65 116.85L66.94 116.9L67.24 116.94L67.54 116.97L67.84 117L68.14 117.03L68.45 117.05L68.76 117.08L69.08 117.09L69.39 117.11L69.72 117.12L70.05 117.13L70.38 117.13L70.72 117.13L76.52 117.13L76.52 43.9L72.72 43.9L72.29 43.9ZM100.64 43.69L100.37 43.69L100.09 43.69L99.8 43.69L99.5 43.69L99.19 43.69L98.87 43.69L98.55 43.69L98.21 43.69L97.87 43.7L97.52 43.7L97.52 116.43L98.21 116.39L98.88 116.35L99.54 116.31L100.18 116.27L100.81 116.22L101.42 116.18L102.02 116.13L102.61 116.08L103.18 116.03L103.74 115.98L104.28 115.92L104.8 115.87L105.31 115.81L105.81 115.76L106.29 115.7L106.76 115.64L107.21 115.57L107.65 115.51L108.08 115.45L108.49 115.38L108.88 115.32L109.26 115.25L109.62 115.18L109.97 115.11L110.31 115.03L110.63 114.96L110.94 114.89L111.23 114.81L111.51 114.73L111.77 114.65L112.01 114.57L112.25 114.49L112.47 114.41L112.67 114.32L112.86 114.24L113.03 114.15L114.89 113.04L116.65 111.8L118.3 110.42L119.85 108.93L121.28 107.33L122.61 105.62L123.83 103.82L124.95 101.93L125.96 99.97L126.86 97.93L127.66 95.83L128.34 93.67L128.92 91.47L129.4 89.23L129.76 86.96L130.02 84.66L130.17 82.35L130.21 80.04L130.15 77.72L129.97 75.42L129.69 73.13L129.31 70.87L128.81 68.64L128.21 66.45L127.49 64.31L126.67 62.23L125.75 60.22L124.71 58.28L123.57 56.42L122.31 54.65L120.95 52.98L119.48 51.41L117.9 49.96L116.22 48.63L114.42 47.43L112.52 46.37L112.31 46.27L112.1 46.17L111.89 46.08L111.68 45.98L111.46 45.88L111.25 45.79L111.03 45.7L110.82 45.6L110.6 45.51L110.38 45.42L110.16 45.33L109.95 45.25L109.73 45.16L109.5 45.08L109.28 44.99L109.06 44.91L108.84 44.83L108.61 44.75L108.39 44.68L108.16 44.6L107.94 44.53L107.71 44.46L107.48 44.39L107.26 44.33L107.03 44.26L106.8 44.2L106.57 44.14L106.34 44.09L106.11 44.03L105.88 43.98L105.65 43.93L105.41 43.89L105.18 43.84L104.95 43.8L104.72 43.77L104.48 43.73L104.45 43.73L104.41 43.72L104.35 43.72L104.29 43.72L104.22 43.71L104.14 43.71L104.05 43.71L103.96 43.7L103.85 43.7L103.73 43.7L103.61 43.7L103.47 43.7L103.33 43.69L103.18 43.69L103.02 43.69L102.85 43.69L102.67 43.69L102.48 43.69L102.28 43.69L102.07 43.69L101.86 43.69L101.63 43.69L101.4 43.69L101.15 43.69L100.9 43.69L100.64 43.69Z" id="d1u3AUiGuN"></path><mask id="maskiY5ubXujZ" x="12.47" y="5.19" width="150.93" height="152.44" maskUnits="userSpaceOnUse"><rect x="12.47" y="5.19" width="150.93" height="152.44" fill="white"></rect><use xlink:href="#d1u3AUiGuN" opacity="1" fill="black"></use></mask><path d="M293.99 142.17C297.23 140.92 300.84 141.43 302.75 140.38C305.79 138.7 307.54 137.01 308.02 135.3C308.2 103.5 308.3 85.84 308.32 82.3C308.42 49.4 308.22 28.4 307.62 26.8C306.32 23.4 303.43 21.12 297.32 20.4C293.24 19.93 290.98 18.25 290.52 15.36L345.52 15.51C344.75 18.71 342.72 20.41 339.41 20.6C334.46 20.89 331.83 21.1 330.42 22.42C329.49 23.31 328.68 24.47 328.02 25.9C327.84 41.32 327.74 49.89 327.72 51.6C327.52 67.94 327.42 76.1 327.42 76.1C357.45 48.32 373.4 33 375.27 30.13C378.24 25.42 377.58 24.27 377.15 22.94C376.72 21.61 372.63 19.97 370.87 19.85C367.57 19.62 365.64 18.12 365.07 15.34L422.52 15.27C421.58 18.67 419.19 20.42 415.34 20.54C415.19 20.55 409.42 21.44 408.01 22.6C407.01 23.42 405.01 25.35 402.02 28.4C368.44 60.88 351.65 77.58 351.65 78.51C351.65 80.41 401.72 129.4 407.72 133.4C410.82 135.4 417.62 138.74 421.12 139.64C425.12 140.64 427.92 142.92 429.52 146.49L368.52 146.31C369.98 142.97 371.75 141.07 373.82 140.6C378.02 139.5 379.32 135.8 377.12 131.6C376.02 129.7 364.52 117.8 351.42 105.1C349.82 103.56 341.86 95.82 327.52 81.9C327.52 96.9 327.52 105.24 327.52 106.9C327.52 120.8 327.92 133.1 328.52 134.5C329.11 136.12 329.18 138.19 331.14 139.42C333.17 140.7 337.13 141.1 339.22 141.1C341.95 141.1 344.05 142.97 345.52 146.69L289.82 146.54C290.45 144.46 291.84 143 293.99 142.17Z" id="bgJk0w1H5"></path><mask id="maskl13nn3T43l" x="279.82" y="5.27" width="159.69" height="151.42" maskUnits="userSpaceOnUse"><rect x="279.82" y="5.27" width="159.69" height="151.42" fill="white"></rect><use xlink:href="#bgJk0w1H5" opacity="1" fill="black"></use></mask><path d="M192.77 109.99C199.34 102.41 205.96 94.27 212.63 85.58C211.95 84.4 207.73 78.7 199.98 68.49C190.84 56.58 177.58 39.15 160.2 16.2L265.85 15.96L266.05 56.71C263.3 51.75 259.2 46.03 253.73 39.56C245.53 29.86 230.9 25.29 210.8 25.19C203.8 25.15 197.9 25.43 197.5 25.73C197.2 26.03 203.85 34.75 212.2 44.9C226.38 62.09 234.49 72.65 236.52 76.58C230.9 83.01 225.68 88.97 220.85 94.47C213.6 102.82 204.95 113.18 201.53 117.61C201.11 118.15 199.03 120.83 195.29 125.66C201.65 126.01 209.09 126.15 217.58 126.08C230.33 125.98 238.07 125.99 246.28 125.28C249.32 125.01 255.22 122.98 257.61 121.12C259.2 119.87 261.84 116.25 265.54 110.25L266.17 147.76L161.2 146.58C171.99 133.92 182.51 121.72 192.77 109.99Z" id="b3wOikrxzZ"></path><mask id="maska2nyoRi3XZ" x="150.2" y="5.96" width="125.97" height="151.79" maskUnits="userSpaceOnUse"><rect x="150.2" y="5.96" width="125.97" height="151.79" fill="white"></rect><use xlink:href="#b3wOikrxzZ" opacity="1" fill="black"></use></mask></defs><g><g><g><use xlink:href="#d1u3AUiGuN" opacity="1" fill="#c51c21" fill-opacity="1"></use><g mask="url(#maskiY5ubXujZ)"><use xlink:href="#d1u3AUiGuN" opacity="1" fill-opacity="0" stroke="#dddbdb" stroke-width="10" stroke-opacity="1"></use></g></g><g><use xlink:href="#bgJk0w1H5" opacity="1" fill="#c51c21" fill-opacity="1"></use><g mask="url(#maskl13nn3T43l)"><use xlink:href="#bgJk0w1H5" opacity="1" fill-opacity="0" stroke="#dddbdb" stroke-width="10" stroke-opacity="1"></use></g></g><g><use xlink:href="#b3wOikrxzZ" opacity="1" fill="#c51c21" fill-opacity="1"></use><g mask="url(#maska2nyoRi3XZ)"><use xlink:href="#b3wOikrxzZ" opacity="1" fill-opacity="0" stroke="#dddbdb" stroke-width="10" stroke-opacity="1"></use></g></g></g></g></svg>